PathFileType	4	(X/Y/Z)	C:\Users\Basilio\Documents\Thesis Gigler\squatting_fais\c3dfiles\041\SJ_pre5\markers_experimental.trc
DataRate	CameraRate	NumFrames	NumMarkers	Units	OrigDataRate	OrigDataStartFrame	OrigNumFrames
200.000000	200.000000	4	62	mm	200.000000	0	1505
Frame#	Time	FHD			LBHD			RBHD			C7			T10			CLAV			LSHO			LUUPA			LMUPA			LDUPA			LLEP			LMEP			LRAD			LUL			LRFIN			RSHO			RUPA1			RMUPA			RDUPA			RLEP			RMEP			RRAD			RUL			RUFIN			LASI			RASI			USACR			LSACR			RSACR			LTHI1			LTHI2			LTHI3			LTHI4			LLFC			LMFC			LTIB1			LTIB2			LTIB3			LTIB4			LLMAL			LMMAL			LHEE			LMT1			LMT2			LMT5			RTHI			RTHI2			RTHI3			RTHI4			RLFC			RMFC			RTIB1			RTIB2			RTIB3			RTIB4			RLMAL			RMMAL			RHEE			RMT1			RMT2			RMT5			*61			
		X1	Y1	Z1	X2	Y2	Z2	X3	Y3	Z3	X4	Y4	Z4	X5	Y5	Z5	X6	Y6	Z6	X7	Y7	Z7	X8	Y8	Z8	X9	Y9	Z9	X10	Y10	Z10	X11	Y11	Z11	X12	Y12	Z12	X13	Y13	Z13	X14	Y14	Z14	X15	Y15	Z15	X16	Y16	Z16	X17	Y17	Z17	X18	Y18	Z18	X19	Y19	Z19	X20	Y20	Z20	X21	Y21	Z21	X22	Y22	Z22	X23	Y23	Z23	X24	Y24	Z24	X25	Y25	Z25	X26	Y26	Z26	X27	Y27	Z27	X28	Y28	Z28	X29	Y29	Z29	X30	Y30	Z30	X31	Y31	Z31	X32	Y32	Z32	X33	Y33	Z33	X34	Y34	Z34	X35	Y35	Z35	X36	Y36	Z36	X37	Y37	Z37	X38	Y38	Z38	X39	Y39	Z39	X40	Y40	Z40	X41	Y41	Z41	X42	Y42	Z42	X43	Y43	Z43	X44	Y44	Z44	X45	Y45	Z45	X46	Y46	Z46	X47	Y47	Z47	X48	Y48	Z48	X49	Y49	Z49	X50	Y50	Z50	X51	Y51	Z51	X52	Y52	Z52	X53	Y53	Z53	X54	Y54	Z54	X55	Y55	Z55	X56	Y56	Z56	X57	Y57	Z57	X58	Y58	Z58	X59	Y59	Z59	X60	Y60	Z60	X61	Y61	Z61	X62	Y62	Z62	

1	0	-241.273666381836	1742.0009765625	-955.790466308594	-411.0613098144532	1662.775268554688	-1035.392456054688	-394.7045288085939	1666.105834960938	-883.3990478515627	-451.0286254882814	1517.79833984375	-973.0794677734377	-470.4045715332032	1200.15478515625	-968.5853271484377	-294.2940979003907	1458.178588867188	-970.0899658203127	-381.4956359863282	1510.521362304688	-1139.232421875	-435.8893432617189	1374.779663085938	-1277.928833007813	-411.4724426269532	1331.546264648438	-1277.314575195313	-456.025360107422	1322.118530273438	-1318.661987304688	-464.042938232422	1275.118896484375	-1343.313598632813	-517.0920410156251	1232.89013671875	-1279.618041992188	-362.7846679687501	1087.118041992188	-1177.451538085938	-347.0668945312501	1047.194580078125	-1238.072998046875	-314.5579833984376	1069.046508789063	-1139.14990234375	-376.4754943847657	1512.106323242188	-805.5181884765627	-433.0658264160157	1368.295166015625	-643.6685791015626	-388.6534729003907	1343.792846679688	-648.8951416015626	-411.9146728515626	1311.244140625	-606.5794677734376	-403.7523193359376	1263.557739257813	-588.7433471679689	-476.9190673828126	1232.525390625	-639.0418701171876	-374.9044494628907	1063.189819335938	-750.4431762695314	-332.8589782714844	1052.821533203125	-795.0980224609377	-342.0499572753907	1023.552612304688	-693.6148071289064	-278.7324218750001	1013.231262207031	-1072.651489257813	-292.2631835937501	1001.674438476563	-856.3428344726565	-467.5432739257814	1086.2861328125	-972.256042480469	-481.2239074707032	1061.246948242188	-1000.016296386719	-489.1107788085939	1060.763549804688	-947.0608520507815	-409.3628234863282	825.8367919921877	-1172.6630859375	-378.3477478027344	746.8031616210939	-1179.051391601563	-330.7977905273438	746.3057250976564	-1167.250854492188	-410.7478027343751	695.1810913085939	-1175.503540039063	-406.0429992675782	514.7008056640626	-1184.295043945313	-400.143768310547	478.1127319335939	-1070.561645507813	-376.9743041992188	318.1651306152344	-1158.584838867188	-424.0232543945314	284.8875732421876	-1228.027221679688	-388.1768493652345	276.9694824218751	-1201.9052734375	-388.0845642089845	195.9975738525391	-1181.693359375	-445.0682067871095	102.7877960205078	-1234.98779296875	-405.9148254394532	102.8122711181641	-1153.238159179688	-501.1732177734376	53.1643524169922	-1203.578125	-285.4348754882813	60.30629348754884	-1175.6171875	-278.3912963867188	59.83703613281251	-1219.97021484375	-317.8168945312501	34.96214294433594	-1276.574340820313	-430.7987365722657	766.3238525390626	-768.3371582031252	-395.7209472656251	710.2960815429689	-758.7528076171876	-362.8082580566407	708.8200073242189	-762.4002075195314	-427.1119079589845	631.9760742187501	-768.8897094726565	-431.0567321777345	505.1378173828126	-755.3710937500001	-404.5120544433595	471.5582275390626	-868.332702636719	-394.2759399414064	339.9142761230469	-738.5890502929689	-474.2794799804689	263.0894470214844	-719.9949951171876	-427.4049377441407	262.5411682128907	-715.9215698242189	-401.1568603515626	212.376937866211	-735.6694946289064	-452.1160278320314	94.92233276367189	-710.7830200195314	-417.5428466796876	102.4820861816407	-787.8430175781252	-503.0677185058595	49.659725189209	-758.0910644531251	-284.9498901367188	53.3891944885254	-750.0768432617189	-286.9987792968751	58.02071762084962	-698.0195312500001	-332.9779052734376	36.4537467956543	-651.1742553710939	-4216.569335937501	853.1027832031252	-3944.870117187501	
2	0.005	-241.1286773681641	1741.861206054688	-955.6921997070315	-411.0828552246095	1662.9052734375	-1035.348754882813	-394.6788024902345	1666.222778320313	-883.339538574219	-451.1102905273439	1517.765625	-973.0343017578127	-470.4721984863282	1200.184692382813	-968.6130981445315	-294.3495788574219	1458.174072265625	-970.0893554687502	-381.6007080078126	1510.518676757813	-1139.207275390625	-435.9626464843751	1374.805297851563	-1277.920654296875	-411.5747375488282	1331.561645507813	-1277.362060546875	-456.0743103027345	1322.152221679688	-1318.64306640625	-464.1035156250001	1275.126953125	-1343.32470703125	-517.3687133789064	1232.904541015625	-1279.67578125	-362.8206787109376	1087.081298828125	-1177.446044921875	-347.2023620605469	1047.203491210938	-1238.11279296875	-314.6411132812501	1069.05859375	-1139.127563476563	-376.5097045898438	1512.08642578125	-805.4926757812502	-432.8948669433595	1368.392700195313	-643.5416870117189	-388.6988220214845	1343.7412109375	-648.8618164062501	-411.9619140625001	1311.213134765625	-606.5913696289064	-403.7788696289064	1263.516845703125	-588.7606201171876	-476.9639587402345	1232.49267578125	-639.0487670898439	-374.8764343261719	1063.1787109375	-750.4520874023439	-332.9047546386719	1052.777954101563	-795.0729980468752	-342.1361083984376	1023.488586425781	-693.6254882812501	-278.7698974609376	1013.226745605469	-1072.69921875	-292.3477783203126	1001.64306640625	-856.3516235351565	-467.6065063476564	1086.301025390625	-972.236267089844	-481.2765197753907	1061.244018554688	-999.9883422851565	-489.1878662109376	1060.762573242188	-947.0452270507815	-409.3628234863282	825.8367919921877	-1172.6630859375	-378.3999633789063	746.7692871093751	-1179.066162109375	-330.8317871093751	746.3117675781251	-1167.271850585938	-410.8141479492189	695.1681518554689	-1175.525390625	-406.0638732910157	514.6873779296876	-1184.307495117188	-400.1565551757814	478.1384887695314	-1070.624389648438	-377.0179748535157	318.0846862792969	-1158.606811523438	-424.0399780273439	284.8331298828126	-1228.022827148438	-388.1800537109376	276.9367370605469	-1201.876342773438	-388.056121826172	196.0303344726563	-1181.733764648438	-445.0701599121095	102.8370590209961	-1234.99755859375	-405.8901977539064	102.8098754882813	-1153.245727539063	-501.1809997558595	53.15773391723634	-1203.5888671875	-285.3845214843751	60.285701751709	-1175.642944335938	-278.3919982910157	59.86069488525392	-1219.936645507813	-317.8557739257813	34.96015548706055	-1276.554565429688	-430.8838806152345	766.3448486328126	-768.3494262695315	-395.7239379882814	710.2946166992189	-758.7706909179689	-362.8884582519532	708.8359375000001	-762.3773803710939	-427.2038879394532	631.9440307617189	-768.8874511718752	-431.0663452148439	505.1458435058595	-755.3852539062501	-404.5520324707032	471.5581665039064	-868.392272949219	-394.2832946777345	339.9112548828126	-738.6087036132814	-474.4008789062501	262.9546813964844	-719.6115112304689	-427.3737182617189	262.5292663574219	-715.9397583007814	-401.1797790527345	212.3749237060547	-735.6569213867189	-452.1007080078126	94.91844940185548	-710.7815551757814	-417.5904235839845	102.47607421875	-787.8409423828127	-503.0616455078126	49.635799407959	-758.0816040039064	-284.9536743164063	53.41039657592775	-750.0866088867189	-287.0118103027344	58.03792953491212	-697.9827880859376	-333.0264587402344	36.47523880004884	-651.1907958984376	-4216.505371093751	853.1636352539065	-3944.735595703126	
3	0.01	-240.9742736816407	1741.673950195313	-955.608581542969	-410.9878234863282	1663.072631835938	-1035.30908203125	-394.6208801269532	1666.362060546875	-883.3094482421877	-451.1731567382814	1517.77685546875	-973.022644042969	-470.5458374023439	1200.17236328125	-968.5889282226565	-294.4918518066407	1458.162231445313	-970.122009277344	-381.6814880371094	1510.533081054688	-1139.205078125	-436.0496215820314	1374.799438476563	-1277.919921875	-411.6528625488282	1331.6005859375	-1277.32666015625	-456.1842651367189	1322.171752929688	-1318.631469726563	-464.1365966796876	1275.15673828125	-1343.339599609375	-517.3053588867189	1232.942993164063	-1279.61767578125	-362.9411315917969	1087.126342773438	-1177.48388671875	-347.2852172851563	1047.195556640625	-1238.122802734375	-314.7522277832032	1069.067504882813	-1139.179809570313	-376.6041870117188	1512.089111328125	-805.4609375000002	-433.1620483398439	1368.20703125	-643.6259155273439	-388.7577209472657	1343.723022460938	-648.8650512695314	-411.9830017089845	1311.202026367188	-606.5951538085939	-403.8247680664064	1263.44091796875	-588.7377319335939	-476.9839477539064	1232.462036132813	-639.0136108398439	-375.0950317382813	1063.2939453125	-750.5827026367189	-332.9218139648438	1052.76220703125	-795.042907714844	-342.2904663085938	1023.431396484375	-693.5614013671876	-278.8771972656251	1013.232238769531	-1072.665405273438	-292.3493347167969	1001.662536621094	-856.3491210937502	-467.6783752441407	1086.296875	-972.2537841796877	-481.3580017089845	1061.257202148438	-1000.034423828125	-489.2017822265626	1060.765747070313	-947.065856933594	-409.4571838378907	825.8240966796877	-1172.661376953125	-378.4519348144532	746.7868652343751	-1179.069702148438	-330.8904724121094	746.3268432617189	-1167.297241210938	-410.7991027832032	695.1687622070314	-1175.524047851563	-406.0782165527345	514.6881103515626	-1184.3447265625	-400.1831665039064	478.1367797851564	-1070.636840820313	-377.0040283203126	318.1396789550782	-1158.616821289063	-423.9566955566407	284.9391479492188	-1228.04736328125	-388.2963867187501	277.4206542968751	-1201.742919921875	-388.0602416992189	196.0141754150391	-1181.749633789063	-445.0663146972657	102.8125381469727	-1234.991088867188	-405.8901672363282	102.8099060058594	-1153.245727539063	-501.1843872070314	53.16304397583009	-1203.5634765625	-284.8840026855469	60.90609741210939	-1175.459350585938	-278.3858032226563	59.75741577148439	-1219.966430664063	-317.8269958496094	34.94258880615235	-1276.561645507813	-430.8921203613282	766.3439331054689	-768.3298950195315	-395.7855224609376	710.2688598632814	-758.7764282226564	-362.9613342285157	708.8469848632814	-762.3258666992189	-427.2512817382814	631.9437255859376	-768.916931152344	-431.115936279297	505.1199951171876	-755.4081420898439	-404.5777587890626	471.5399475097657	-868.373229980469	-394.3277587890626	339.9372558593751	-738.6514892578126	-474.4199523925782	262.9541015625001	-719.6343383789064	-427.4544982910157	262.5435485839844	-715.9124755859376	-401.1854553222657	212.391586303711	-735.6336059570314	-452.1208801269532	94.92098999023439	-710.7908325195314	-417.6199340820314	102.4585418701172	-787.858581542969	-503.0835876464845	49.67369842529298	-758.0888061523439	-284.9519042968751	53.39815139770509	-750.0414428710939	-287.0280151367188	58.03790283203126	-697.9564208984376	-333.0123291015626	36.47050476074219	-651.1900024414064	-4216.570800781251	853.1429443359377	-3944.856201171876	
4	0.015	-240.7036743164063	1741.509643554688	-955.5271606445315	-410.943572998047	1663.226684570313	-1035.2822265625	-394.5115051269532	1666.488891601563	-883.2707519531252	-451.2828369140626	1517.757202148438	-973.0084228515627	-470.5606994628907	1200.140014648438	-968.5530395507815	-294.5129699707032	1458.151000976563	-970.0535278320315	-381.7605590820313	1510.553588867188	-1139.18994140625	-436.0717163085939	1374.804809570313	-1277.918334960938	-411.6914978027345	1331.614990234375	-1277.349609375	-456.2490234375001	1322.1865234375	-1318.650634765625	-464.2867736816407	1275.18798828125	-1343.359497070313	-517.3729248046876	1232.951538085938	-1279.634887695313	-362.9456787109376	1087.1396484375	-1177.4951171875	-347.3688659667969	1047.25341796875	-1238.151245117188	-314.7455444335938	1069.110717773438	-1139.164184570313	-376.6980895996094	1512.06396484375	-805.3958740234377	-433.2031250000001	1368.170288085938	-643.5862426757814	-388.8362121582032	1343.662475585938	-648.8278198242189	-412.0177612304689	1311.185180664063	-606.5791015625001	-403.8805236816407	1263.458740234375	-588.7778930664064	-477.0591735839845	1232.420654296875	-638.9993896484376	-374.9611816406251	1063.138427734375	-750.4761962890626	-333.0892333984376	1052.7197265625	-795.1384277343752	-342.3617248535157	1023.397033691406	-693.5883178710939	-279.0098266601563	1013.23046875	-1072.711059570313	-292.4342956542969	1001.651733398438	-856.3930664062502	-467.6829223632814	1086.283203125	-972.2532348632815	-481.4102172851564	1061.276733398438	-1000.018493652344	-489.2864074707032	1060.764892578125	-947.0592041015627	-409.4571838378907	825.8240966796877	-1172.661376953125	-378.4672241210938	746.7896728515626	-1179.086547851563	-330.9098510742188	746.3428955078126	-1167.3125	-410.8181152343751	695.1744995117189	-1175.59814453125	-406.130096435547	514.6757812500001	-1184.3662109375	-400.1936645507814	478.1694946289064	-1070.634399414063	-377.0589294433594	318.0886230468751	-1158.661499023438	-424.0383300781251	284.9091491699219	-1228.086669921875	-388.1926269531251	276.9540405273438	-1201.90673828125	-388.0647583007814	195.9961395263672	-1181.7421875	-445.0776977539064	102.8270645141602	-1235.011108398438	-405.8804016113282	102.7934951782227	-1153.258178710938	-501.1685180664064	53.15352249145509	-1203.586181640625	-284.8842163085938	60.90594863891603	-1175.459350585938	-278.3797912597657	59.77560806274415	-1219.960571289063	-317.7838134765626	34.93817520141602	-1276.588989257813	-430.9562377929689	766.3112182617189	-768.371276855469	-395.8919372558595	710.2739257812501	-758.7497558593751	-363.0283203125001	708.8525390625001	-762.3873291015626	-427.2753295898439	631.9487304687501	-768.9058227539065	-431.1453552246095	505.1174621582032	-755.4349975585939	-404.6626281738282	471.5213012695314	-868.409606933594	-394.3334045410157	339.9212036132813	-738.5892944335939	-474.3551635742189	263.0754089355469	-720.0150756835939	-427.4775390625001	262.5320129394532	-715.8978881835939	-401.203094482422	212.3664550781251	-735.6511230468751	-452.1099548339845	94.89536285400392	-710.7764282226564	-417.5916137695314	102.4943466186524	-787.8704223632815	-503.0910949707032	49.6598243713379	-758.0924682617189	-284.9588928222657	53.39399337768556	-750.0398559570314	-287.0287475585938	58.0340919494629	-697.9953613281251	-333.0123291015626	36.47050476074219	-651.1900024414064	-4216.587890625001	853.156433105469	-3944.722412109376	
